<mxfile host="app.diagrams.net" modified="2024-05-20T16:31:18.274Z" agent="Mozilla/5.0 (X11; Linux x86_64; rv:126.0) Gecko/20100101 Firefox/126.0" etag="JWUw53OJt5B8eX3DoU9Y" version="24.4.4" type="device">
  <diagram id="C5RBs43oDa-KdzZeNtuy" name="Page-1">
    <mxGraphModel dx="2350" dy="1313" grid="1" gridSize="10" guides="1" tooltips="1" connect="1" arrows="1" fold="1" page="1" pageScale="1" pageWidth="827" pageHeight="1169" math="0" shadow="0">
      <root>
        <mxCell id="WIyWlLk6GJQsqaUBKTNV-0" />
        <mxCell id="WIyWlLk6GJQsqaUBKTNV-1" parent="WIyWlLk6GJQsqaUBKTNV-0" />
        <mxCell id="0xkykKNiRA2JzHIzsFPC-1" value="MiniTwit" style="shape=folder;fontStyle=1;tabWidth=110;tabHeight=30;tabPosition=left;html=1;boundedLbl=1;labelInHeader=1;container=0;collapsible=0;whiteSpace=wrap;" vertex="1" parent="WIyWlLk6GJQsqaUBKTNV-1">
          <mxGeometry x="200" y="65" width="520" height="520" as="geometry" />
        </mxCell>
        <mxCell id="0xkykKNiRA2JzHIzsFPC-2" value="" style="html=1;strokeColor=none;resizeWidth=1;resizeHeight=1;fillColor=none;part=1;connectable=0;allowArrows=0;deletable=0;whiteSpace=wrap;" vertex="1" parent="WIyWlLk6GJQsqaUBKTNV-1">
          <mxGeometry x="200" y="65" width="410" height="294" as="geometry">
            <mxPoint y="30" as="offset" />
          </mxGeometry>
        </mxCell>
        <mxCell id="0xkykKNiRA2JzHIzsFPC-32" style="edgeStyle=orthogonalEdgeStyle;rounded=0;orthogonalLoop=1;jettySize=auto;html=1;dashed=1;" edge="1" parent="WIyWlLk6GJQsqaUBKTNV-1" source="0xkykKNiRA2JzHIzsFPC-4" target="0xkykKNiRA2JzHIzsFPC-6">
          <mxGeometry relative="1" as="geometry">
            <Array as="points">
              <mxPoint x="340" y="360" />
            </Array>
          </mxGeometry>
        </mxCell>
        <mxCell id="0xkykKNiRA2JzHIzsFPC-4" value="Migrations" style="shape=folder;fontStyle=1;spacingTop=10;tabWidth=40;tabHeight=14;tabPosition=left;html=1;whiteSpace=wrap;" vertex="1" parent="WIyWlLk6GJQsqaUBKTNV-1">
          <mxGeometry x="430" y="335" width="70" height="50" as="geometry" />
        </mxCell>
        <mxCell id="0xkykKNiRA2JzHIzsFPC-5" value="Data" style="shape=folder;fontStyle=1;spacingTop=10;tabWidth=40;tabHeight=14;tabPosition=left;html=1;whiteSpace=wrap;" vertex="1" parent="WIyWlLk6GJQsqaUBKTNV-1">
          <mxGeometry x="600" y="415" width="70" height="50" as="geometry" />
        </mxCell>
        <mxCell id="0xkykKNiRA2JzHIzsFPC-6" value="Models" style="shape=folder;fontStyle=1;spacingTop=10;tabWidth=40;tabHeight=14;tabPosition=left;html=1;whiteSpace=wrap;" vertex="1" parent="WIyWlLk6GJQsqaUBKTNV-1">
          <mxGeometry x="280" y="415" width="70" height="50" as="geometry" />
        </mxCell>
        <mxCell id="0xkykKNiRA2JzHIzsFPC-7" value="Areas/FrontEnd" style="shape=folder;fontStyle=1;spacingTop=10;tabWidth=40;tabHeight=14;tabPosition=left;html=1;whiteSpace=wrap;" vertex="1" parent="WIyWlLk6GJQsqaUBKTNV-1">
          <mxGeometry x="420" y="115" width="70" height="50" as="geometry" />
        </mxCell>
        <mxCell id="0xkykKNiRA2JzHIzsFPC-14" style="rounded=0;orthogonalLoop=1;jettySize=auto;html=1;dashed=1;edgeStyle=orthogonalEdgeStyle;" edge="1" parent="WIyWlLk6GJQsqaUBKTNV-1" source="0xkykKNiRA2JzHIzsFPC-8" target="0xkykKNiRA2JzHIzsFPC-6">
          <mxGeometry relative="1" as="geometry" />
        </mxCell>
        <mxCell id="0xkykKNiRA2JzHIzsFPC-8" value="Areas/Api" style="shape=folder;fontStyle=1;spacingTop=10;tabWidth=40;tabHeight=14;tabPosition=left;html=1;whiteSpace=wrap;" vertex="1" parent="WIyWlLk6GJQsqaUBKTNV-1">
          <mxGeometry x="600" y="515" width="70" height="50" as="geometry" />
        </mxCell>
        <mxCell id="0xkykKNiRA2JzHIzsFPC-33" style="edgeStyle=orthogonalEdgeStyle;rounded=0;orthogonalLoop=1;jettySize=auto;html=1;dashed=1;" edge="1" parent="WIyWlLk6GJQsqaUBKTNV-1" source="0xkykKNiRA2JzHIzsFPC-9" target="0xkykKNiRA2JzHIzsFPC-7">
          <mxGeometry relative="1" as="geometry">
            <Array as="points">
              <mxPoint x="230" y="540" />
              <mxPoint x="230" y="135" />
            </Array>
          </mxGeometry>
        </mxCell>
        <mxCell id="0xkykKNiRA2JzHIzsFPC-9" value="Program.cs" style="shape=folder;fontStyle=1;spacingTop=10;tabWidth=40;tabHeight=14;tabPosition=left;html=1;whiteSpace=wrap;" vertex="1" parent="WIyWlLk6GJQsqaUBKTNV-1">
          <mxGeometry x="280" y="515" width="70" height="50" as="geometry" />
        </mxCell>
        <mxCell id="0xkykKNiRA2JzHIzsFPC-11" value="Authentication.cs" style="shape=folder;fontStyle=1;spacingTop=10;tabWidth=40;tabHeight=14;tabPosition=left;html=1;whiteSpace=wrap;" vertex="1" parent="WIyWlLk6GJQsqaUBKTNV-1">
          <mxGeometry x="340" y="235" width="130" height="50" as="geometry" />
        </mxCell>
        <mxCell id="0xkykKNiRA2JzHIzsFPC-12" value="Utility.cs" style="shape=folder;fontStyle=1;spacingTop=10;tabWidth=40;tabHeight=14;tabPosition=left;html=1;whiteSpace=wrap;" vertex="1" parent="WIyWlLk6GJQsqaUBKTNV-1">
          <mxGeometry x="520" y="235" width="70" height="50" as="geometry" />
        </mxCell>
        <mxCell id="0xkykKNiRA2JzHIzsFPC-15" style="rounded=0;orthogonalLoop=1;jettySize=auto;html=1;dashed=1;edgeStyle=orthogonalEdgeStyle;" edge="1" parent="WIyWlLk6GJQsqaUBKTNV-1" source="0xkykKNiRA2JzHIzsFPC-7" target="0xkykKNiRA2JzHIzsFPC-6">
          <mxGeometry relative="1" as="geometry">
            <mxPoint x="204" y="225" as="sourcePoint" />
            <mxPoint x="236" y="265" as="targetPoint" />
            <Array as="points">
              <mxPoint x="290" y="155" />
            </Array>
          </mxGeometry>
        </mxCell>
        <mxCell id="0xkykKNiRA2JzHIzsFPC-16" style="rounded=0;orthogonalLoop=1;jettySize=auto;html=1;dashed=1;edgeStyle=orthogonalEdgeStyle;" edge="1" parent="WIyWlLk6GJQsqaUBKTNV-1" source="0xkykKNiRA2JzHIzsFPC-12" target="0xkykKNiRA2JzHIzsFPC-5">
          <mxGeometry relative="1" as="geometry">
            <mxPoint x="204" y="225" as="sourcePoint" />
            <mxPoint x="236" y="265" as="targetPoint" />
            <Array as="points">
              <mxPoint x="575" y="335" />
              <mxPoint x="635" y="335" />
            </Array>
          </mxGeometry>
        </mxCell>
        <mxCell id="0xkykKNiRA2JzHIzsFPC-17" style="rounded=0;orthogonalLoop=1;jettySize=auto;html=1;dashed=1;" edge="1" parent="WIyWlLk6GJQsqaUBKTNV-1" source="0xkykKNiRA2JzHIzsFPC-6" target="0xkykKNiRA2JzHIzsFPC-5">
          <mxGeometry relative="1" as="geometry">
            <mxPoint x="62" y="265" as="sourcePoint" />
            <mxPoint x="128" y="325" as="targetPoint" />
          </mxGeometry>
        </mxCell>
        <mxCell id="0xkykKNiRA2JzHIzsFPC-18" style="rounded=0;orthogonalLoop=1;jettySize=auto;html=1;dashed=1;edgeStyle=orthogonalEdgeStyle;" edge="1" parent="WIyWlLk6GJQsqaUBKTNV-1" source="0xkykKNiRA2JzHIzsFPC-4" target="0xkykKNiRA2JzHIzsFPC-5">
          <mxGeometry relative="1" as="geometry">
            <mxPoint x="220" y="311" as="sourcePoint" />
            <mxPoint x="190" y="329" as="targetPoint" />
            <Array as="points">
              <mxPoint x="610" y="370" />
            </Array>
          </mxGeometry>
        </mxCell>
        <mxCell id="0xkykKNiRA2JzHIzsFPC-19" style="rounded=0;orthogonalLoop=1;jettySize=auto;html=1;dashed=1;" edge="1" parent="WIyWlLk6GJQsqaUBKTNV-1" source="0xkykKNiRA2JzHIzsFPC-8" target="0xkykKNiRA2JzHIzsFPC-5">
          <mxGeometry relative="1" as="geometry">
            <mxPoint x="62" y="265" as="sourcePoint" />
            <mxPoint x="128" y="325" as="targetPoint" />
          </mxGeometry>
        </mxCell>
        <mxCell id="0xkykKNiRA2JzHIzsFPC-20" style="rounded=0;orthogonalLoop=1;jettySize=auto;html=1;dashed=1;edgeStyle=orthogonalEdgeStyle;" edge="1" parent="WIyWlLk6GJQsqaUBKTNV-1" source="0xkykKNiRA2JzHIzsFPC-7" target="0xkykKNiRA2JzHIzsFPC-5">
          <mxGeometry relative="1" as="geometry">
            <mxPoint x="62" y="265" as="sourcePoint" />
            <mxPoint x="128" y="325" as="targetPoint" />
            <Array as="points">
              <mxPoint x="660" y="140" />
            </Array>
          </mxGeometry>
        </mxCell>
        <mxCell id="0xkykKNiRA2JzHIzsFPC-21" style="rounded=0;orthogonalLoop=1;jettySize=auto;html=1;dashed=1;" edge="1" parent="WIyWlLk6GJQsqaUBKTNV-1" source="0xkykKNiRA2JzHIzsFPC-9" target="0xkykKNiRA2JzHIzsFPC-6">
          <mxGeometry relative="1" as="geometry">
            <mxPoint x="340" y="225" as="sourcePoint" />
            <mxPoint x="370" y="275" as="targetPoint" />
          </mxGeometry>
        </mxCell>
        <mxCell id="0xkykKNiRA2JzHIzsFPC-22" style="rounded=0;orthogonalLoop=1;jettySize=auto;html=1;dashed=1;edgeStyle=orthogonalEdgeStyle;" edge="1" parent="WIyWlLk6GJQsqaUBKTNV-1" source="0xkykKNiRA2JzHIzsFPC-5" target="0xkykKNiRA2JzHIzsFPC-6">
          <mxGeometry relative="1" as="geometry">
            <mxPoint x="300" y="495" as="sourcePoint" />
            <mxPoint x="130" y="379" as="targetPoint" />
          </mxGeometry>
        </mxCell>
        <mxCell id="0xkykKNiRA2JzHIzsFPC-23" style="rounded=0;orthogonalLoop=1;jettySize=auto;html=1;dashed=1;edgeStyle=orthogonalEdgeStyle;" edge="1" parent="WIyWlLk6GJQsqaUBKTNV-1" source="0xkykKNiRA2JzHIzsFPC-12" target="0xkykKNiRA2JzHIzsFPC-6">
          <mxGeometry relative="1" as="geometry">
            <mxPoint x="45" y="265" as="sourcePoint" />
            <mxPoint x="85" y="365" as="targetPoint" />
            <Array as="points">
              <mxPoint x="315" y="315" />
            </Array>
          </mxGeometry>
        </mxCell>
        <mxCell id="0xkykKNiRA2JzHIzsFPC-25" style="rounded=0;orthogonalLoop=1;jettySize=auto;html=1;dashed=1;edgeStyle=orthogonalEdgeStyle;" edge="1" parent="WIyWlLk6GJQsqaUBKTNV-1" source="0xkykKNiRA2JzHIzsFPC-7" target="0xkykKNiRA2JzHIzsFPC-12">
          <mxGeometry relative="1" as="geometry">
            <mxPoint x="295" y="225" as="sourcePoint" />
            <mxPoint x="125" y="365" as="targetPoint" />
            <Array as="points">
              <mxPoint x="480" y="195" />
              <mxPoint x="560" y="195" />
            </Array>
          </mxGeometry>
        </mxCell>
        <mxCell id="0xkykKNiRA2JzHIzsFPC-26" style="rounded=0;orthogonalLoop=1;jettySize=auto;html=1;dashed=1;edgeStyle=orthogonalEdgeStyle;" edge="1" parent="WIyWlLk6GJQsqaUBKTNV-1" source="0xkykKNiRA2JzHIzsFPC-9" target="0xkykKNiRA2JzHIzsFPC-8">
          <mxGeometry relative="1" as="geometry">
            <mxPoint x="490" y="334" as="sourcePoint" />
            <mxPoint x="390" y="316" as="targetPoint" />
          </mxGeometry>
        </mxCell>
        <mxCell id="0xkykKNiRA2JzHIzsFPC-27" style="rounded=0;orthogonalLoop=1;jettySize=auto;html=1;dashed=1;edgeStyle=orthogonalEdgeStyle;" edge="1" parent="WIyWlLk6GJQsqaUBKTNV-1" source="0xkykKNiRA2JzHIzsFPC-12" target="0xkykKNiRA2JzHIzsFPC-11">
          <mxGeometry relative="1" as="geometry">
            <mxPoint x="45" y="265" as="sourcePoint" />
            <mxPoint x="85" y="365" as="targetPoint" />
            <Array as="points">
              <mxPoint x="500" y="265" />
              <mxPoint x="500" y="265" />
            </Array>
          </mxGeometry>
        </mxCell>
        <mxCell id="0xkykKNiRA2JzHIzsFPC-29" style="rounded=0;orthogonalLoop=1;jettySize=auto;html=1;dashed=1;edgeStyle=orthogonalEdgeStyle;" edge="1" parent="WIyWlLk6GJQsqaUBKTNV-1" source="0xkykKNiRA2JzHIzsFPC-7" target="0xkykKNiRA2JzHIzsFPC-11">
          <mxGeometry relative="1" as="geometry">
            <mxPoint x="70" y="238" as="sourcePoint" />
            <mxPoint x="510" y="214" as="targetPoint" />
            <Array as="points">
              <mxPoint x="455" y="185" />
              <mxPoint x="410" y="185" />
            </Array>
          </mxGeometry>
        </mxCell>
      </root>
    </mxGraphModel>
  </diagram>
</mxfile>
